<?xml version="1.0" encoding="UTF-8"?>
<svg width="54px" height="49px" viewBox="0 0 54 49" version="1.1" xmlns="http://www.w3.org/2000/svg" xmlns:xlink="http://www.w3.org/1999/xlink">
    <!-- Generator: Sketch 43.1 (39012) - http://www.bohemiancoding.com/sketch -->
    <title>noun_938970_cc</title>
    <desc>Created with Sketch.</desc>
    <defs></defs>
    <g id="Page-1" stroke="none" stroke-width="1" fill="none" fill-rule="evenodd">
        <g id="Desktop" transform="translate(-561.000000, -635.000000)" fill-rule="nonzero" fill="#000000">
            <g id="noun_938970_cc" transform="translate(561.000000, 635.000000)">
                <g id="Group">
                    <g id="Shape">
                        <path d="M29.7769231,1.88461538 L29.7769231,1.88461538 C29.3057692,0.942307692 28.3634615,0.471153846 27.3269231,0.471153846 C26.2903846,0.471153846 25.3480769,1.03653846 24.8769231,1.88461538 L0.942307692,44.4769231 C0.471153846,45.325 0.471153846,46.3615385 0.942307692,47.1153846 C1.41346154,47.9634615 2.35576923,48.5288462 3.39230769,48.5288462 L51.1673077,48.5288462 C52.2038462,48.5288462 53.1461538,47.9634615 53.6173077,47.1153846 C54.0884615,46.2673077 54.0884615,45.325 53.6173077,44.4769231 L29.7769231,1.88461538 Z M52.1096154,46.1730769 C51.9211538,46.4557692 51.6384615,46.6442308 51.2615385,46.6442308 L3.39230769,46.6442308 C3.01538462,46.6442308 2.73269231,46.4557692 2.54423077,46.1730769 C2.45,45.9846154 2.35576923,45.7019231 2.54423077,45.325 L26.4788462,2.82692308 C26.6673077,2.54423077 26.95,2.35576923 27.3269231,2.35576923 C27.7038462,2.35576923 27.9865385,2.54423077 28.175,2.82692308 L28.175,2.82692308 L52.1096154,45.4192308 C52.2980769,45.7019231 52.1096154,46.0788462 52.1096154,46.1730769 Z"></path>
                        <path d="M27.3269231,16.6788462 C26.7615385,16.6788462 26.3846154,17.0557692 26.3846154,17.6211538 L26.3846154,32.9807692 C26.3846154,33.5461538 26.7615385,33.9230769 27.3269231,33.9230769 C27.8923077,33.9230769 28.2692308,33.5461538 28.2692308,32.9807692 L28.2692308,17.6211538 C28.2692308,17.15 27.8923077,16.6788462 27.3269231,16.6788462 Z"></path>
                        <path d="M27.3269231,36.1846154 C26.7615385,36.1846154 26.3846154,36.5615385 26.3846154,37.1269231 L26.3846154,37.975 C26.3846154,38.5403846 26.7615385,38.9173077 27.3269231,38.9173077 C27.8923077,38.9173077 28.2692308,38.5403846 28.2692308,37.975 L28.2692308,37.1269231 C28.2692308,36.5615385 27.8923077,36.1846154 27.3269231,36.1846154 Z"></path>
                    </g>
                </g>
            </g>
        </g>
    </g>
</svg>
