<?xml version="1.0" encoding="UTF-8"?>
<svg width="45px" height="41px" viewBox="0 0 45 41" version="1.1" xmlns="http://www.w3.org/2000/svg" xmlns:xlink="http://www.w3.org/1999/xlink">
    <!-- Generator: Sketch 43.1 (39012) - http://www.bohemiancoding.com/sketch -->
    <title>noun_648716_cc</title>
    <desc>Created with Sketch.</desc>
    <defs></defs>
    <g id="Page-1" stroke="none" stroke-width="1" fill="none" fill-rule="evenodd">
        <g id="Desktop" transform="translate(-476.000000, -551.000000)" fill-rule="nonzero" fill="#000000">
            <g id="noun_648716_cc" transform="translate(476.000000, 551.000000)">
                <g id="Group">
                    <g id="Shape">
                        <path d="M8.00822581,29.7507903 C7.64319355,29.7507903 7.34693548,30.0470484 7.34693548,30.4120806 L7.34693548,38.0169194 C7.34693548,38.3819516 7.64319355,38.6782097 8.00822581,38.6782097 L12.6372581,38.6782097 C13.0022903,38.6782097 13.2985484,38.3819516 13.2985484,38.0169194 L13.2985484,30.4120806 C13.2985484,30.0470484 13.0022903,29.7507903 12.6372581,29.7507903 L8.00822581,29.7507903 L8.00822581,29.7507903 Z M11.9759677,37.355629 L8.66951613,37.355629 L8.66951613,31.073371 L11.9759677,31.073371 L11.9759677,37.355629 Z"></path>
                        <path d="M21.1295484,23.1378871 L16.5005161,23.1378871 C16.1354839,23.1378871 15.8392258,23.4341452 15.8392258,23.7991774 L15.8392258,38.0169194 C15.8392258,38.3819516 16.1354839,38.6782097 16.5005161,38.6782097 L21.1295484,38.6782097 C21.4945806,38.6782097 21.7908387,38.3819516 21.7908387,38.0169194 L21.7908387,23.7991774 C21.7908387,23.4341452 21.4945806,23.1378871 21.1295484,23.1378871 Z M20.4682581,37.355629 L17.1618065,37.355629 L17.1618065,24.4604677 L20.4682581,24.4604677 L20.4682581,37.355629 Z"></path>
                        <path d="M24.9921452,16.5249839 C24.6271129,16.5249839 24.3308548,16.8212419 24.3308548,17.1862742 L24.3308548,38.0169194 C24.3308548,38.3819516 24.6271129,38.6782097 24.9921452,38.6782097 L29.6211774,38.6782097 C29.9862097,38.6782097 30.2824677,38.3819516 30.2824677,38.0169194 L30.2824677,17.1862742 C30.2824677,16.8212419 29.9862097,16.5249839 29.6211774,16.5249839 L24.9921452,16.5249839 L24.9921452,16.5249839 Z M28.9598871,37.355629 L25.6534355,37.355629 L25.6534355,17.8475645 L28.9598871,17.8475645 L28.9598871,37.355629 Z"></path>
                        <path d="M32.8231452,10.573371 L32.8231452,38.0169194 C32.8231452,38.3819516 33.1194032,38.6782097 33.4844355,38.6782097 L38.1134677,38.6782097 C38.4785,38.6782097 38.7747581,38.3819516 38.7747581,38.0169194 L38.7747581,10.573371 C38.7747581,10.2083387 38.4785,9.91208065 38.1134677,9.91208065 L33.4844355,9.91208065 C33.1194032,9.91208065 32.8231452,10.2083387 32.8231452,10.573371 Z M34.1457258,11.2346613 L37.4521774,11.2346613 L37.4521774,37.355629 L34.1457258,37.355629 L34.1457258,11.2346613 Z"></path>
                        <path d="M0.721467742,40.9054355 L44.2429677,40.9054355 C44.608,40.9054355 44.9042581,40.6091774 44.9042581,40.2441452 C44.9042581,39.8791129 44.608,39.5828548 44.2429677,39.5828548 L1.38275806,39.5828548 L1.38275806,0.755854839 C1.38275806,0.390822581 1.0865,0.0945645161 0.721467742,0.0945645161 C0.356435484,0.0945645161 0.0601774194,0.390822581 0.0601774194,0.755854839 L0.0601774194,40.2441452 C0.0601774194,40.6091774 0.356435484,40.9054355 0.721467742,40.9054355 Z"></path>
                        <path d="M5.59517742,27.2636774 C5.69370968,27.2636774 5.79356452,27.2418548 5.88812903,27.1949032 C5.98335484,27.1479516 15.4715484,22.422371 21.7862097,16.9098548 C26.6195806,12.6901613 30.6203871,6.32987097 32.3430484,3.36795161 L32.4369516,3.97237097 C32.487871,4.29904839 32.7689194,4.53248387 33.0896452,4.53248387 C33.123371,4.53248387 33.1577581,4.52983871 33.1921452,4.52454839 C33.5532097,4.46833871 33.799871,4.13041935 33.7443226,3.76935484 L33.3759839,1.39598387 C33.3468871,1.20817742 33.2357903,1.04814516 33.0790645,0.946306452 C33.0440161,0.916548387 33.0149194,0.8815 32.9725968,0.859016129 C32.8694355,0.804790323 32.7596613,0.790241935 32.6512097,0.792225806 C32.5460645,0.784290323 32.4402581,0.794209677 32.3410645,0.836532258 L30.0635806,1.8178871 C29.7283065,1.96270968 29.5735645,2.35154839 29.7183871,2.68682258 C29.8632097,3.02143548 30.2507258,3.17617742 30.5873226,3.03201613 L31.1401613,2.79395161 C29.4161774,5.73074194 25.4993548,11.9118226 20.9166129,15.9119677 C14.7328871,21.3100806 5.39546774,25.9615968 5.30156452,26.0085484 C4.97422581,26.1705645 4.84064516,26.5673387 5.00266129,26.8946774 C5.11706452,27.1281129 5.35116129,27.2636774 5.59517742,27.2636774 Z"></path>
                    </g>
                </g>
            </g>
        </g>
    </g>
</svg>
