<?xml version="1.0" encoding="UTF-8"?>
<svg width="48px" height="49px" viewBox="0 0 48 49" version="1.1" xmlns="http://www.w3.org/2000/svg" xmlns:xlink="http://www.w3.org/1999/xlink">
    <!-- Generator: Sketch 43.1 (39012) - http://www.bohemiancoding.com/sketch -->
    <title>noun_861553_cc</title>
    <desc>Created with Sketch.</desc>
    <defs></defs>
    <g id="Page-1" stroke="none" stroke-width="1" fill="none" fill-rule="evenodd">
        <g id="Desktop" transform="translate(-270.000000, -362.000000)" fill-rule="nonzero" fill="#000000">
            <g id="noun_861553_cc" transform="translate(270.000000, 362.000000)">
                <g id="Group">
                    <g id="Shape">
                        <path d="M24,0.202152558 C10.7517767,0.202152558 0,10.9540186 0,24.2021581 C0,37.4503256 10.7517767,48.2021581 24,48.2021581 C37.2482233,48.2021581 48,37.4503256 48,24.2021581 C48,10.9540186 37.2482233,0.202152558 24,0.202152558 Z M24,1.31843163 C36.6449302,1.31843163 46.8837209,11.5573005 46.8837209,24.2021581 C46.8837209,36.8470326 36.6449302,47.0858791 24,47.0858791 C11.3550698,47.0858791 1.11627907,36.8470326 1.11627907,24.2021581 C1.11627907,11.5573005 11.3550698,1.31843163 24,1.31843163 Z M26.2325581,6.89982698 C24.6912558,6.89982698 23.4418605,8.14927814 23.4418605,9.69052465 C23.4418605,11.2317935 24.6912558,12.4812223 26.2325581,12.4812223 C27.7738047,12.4812223 29.0232558,11.2317935 29.0232558,9.69052465 C29.0232558,8.14927814 27.7738047,6.89982698 26.2325581,6.89982698 Z M24.4186047,14.1556409 C22.8958884,14.2499163 21.3175256,15.2611256 19.9534884,16.5800595 L19.7965395,18.5858735 C21.0851721,17.9497507 23.4992372,17.3854381 23.8953488,18.899827 C24.8593674,22.5836819 20.4718884,29.5980837 19.5697674,32.975386 C17.0811349,42.8896744 23.0011535,43.0453395 27,39.0626233 L27.1395349,37.0567814 C24.7357395,38.1188093 21.372614,38.6986047 23.6511628,32.1730605 C24.286214,29.8640372 30.0632372,18.6269414 27.0348837,15.1149433 C26.2240744,14.3839926 25.3322233,14.0990735 24.4186047,14.1556409 L24.4186047,14.1556409 Z"></path>
                    </g>
                </g>
            </g>
        </g>
    </g>
</svg>