<?xml version="1.0" encoding="UTF-8"?>
<svg width="65px" height="42px" viewBox="0 0 65 42" version="1.1" xmlns="http://www.w3.org/2000/svg" xmlns:xlink="http://www.w3.org/1999/xlink">
    <!-- Generator: Sketch 43.1 (39012) - http://www.bohemiancoding.com/sketch -->
    <title>noun_942654_cc</title>
    <desc>Created with Sketch.</desc>
    <defs></defs>
    <g id="Page-1" stroke="none" stroke-width="1" fill="none" fill-rule="evenodd">
        <g id="Desktop" transform="translate(-553.000000, -363.000000)" fill-rule="nonzero" fill="#000000">
            <g id="noun_942654_cc" transform="translate(553.000000, 363.000000)">
                <g id="Group">
                    <g id="Shape">
                        <path d="M18.6960409,0.0999532045 C12.5355168,0.0999532045 7.53411306,5.60071533 7.53411306,12.3762714 C7.53411306,15.9484559 8.93550197,19.1624999 11.1590467,21.4058455 C4.46099839,24.6647623 0.0599540763,32.0107355 0.0599540763,40.1656505 C0.0599540763,40.6810225 0.430365584,41.1031608 0.903358046,41.1031608 L10.1810676,41.1031608 C10.6541932,41.1031608 11.0244716,40.6807054 11.0244716,40.1656505 C11.0244716,39.6502906 10.6540601,39.2281524 10.1810676,39.2281524 L1.77377663,39.2281524 C2.10445326,31.8664694 6.40843958,25.3603572 12.7112796,22.738063 C14.443212,23.9557384 16.490994,24.6722756 18.6960409,24.6722756 C19.1647084,24.6722756 19.5483722,24.2502594 19.5483722,23.7348263 C19.5483722,23.2194176 19.1647084,22.8071468 18.6960409,22.8071468 C13.4727075,22.8071468 9.2299814,18.1309385 9.2299814,12.38609 C9.2299814,6.64129029 13.4727075,1.96509422 18.6960409,1.96509422 C19.7710893,1.96509422 20.8349925,2.15364766 21.8364487,2.53749949 C22.2774359,2.71449017 22.7569825,2.46013391 22.913205,1.9749616 C23.0648251,1.48993565 22.8291218,0.947632586 22.3927258,0.780923974 C21.2074999,0.326170984 19.9640413,0.0999532045 18.6960409,0.0999532045 L18.6960409,0.0999532045 Z M32.424134,0.108857015 C31.4593961,0.108857015 30.533883,0.256038228 29.6425932,0.513516922 C24.8281086,1.8777271 21.262195,6.67553947 21.262195,12.395128 C21.262195,15.9673247 22.6683082,19.1762947 24.8871398,21.4247143 C18.1936715,24.6836676 13.7880358,32.0296043 13.7880358,40.1845192 C13.7880358,40.6999279 14.1629054,41.1219807 14.6314398,41.1219807 L50.2257333,41.1219807 C50.3406351,41.1219807 50.4567234,41.0908418 50.5581178,41.0432735 C50.856523,40.9018614 51.0695365,40.5738963 51.0695365,40.1847388 C51.0695365,32.0247499 46.6684809,24.6787766 39.9705656,21.4248972 C42.1893861,19.1764655 43.5954993,15.9674955 43.5954993,12.3952988 C43.5954993,6.8929876 40.2878568,2.21795025 35.7443634,0.661734879 C34.692404,0.302874712 33.5776097,0.109174137 32.4245221,0.109174137 L32.424134,0.108857015 Z M46.1612652,0.108857015 C44.897856,0.108857015 43.6496731,0.339660868 42.4644472,0.799597583 C42.02346,0.971258177 41.792481,1.49879067 41.9441123,1.98382882 C42.1001906,2.46890355 42.5932556,2.73304181 43.0297736,2.55618529 C44.0358322,2.17197976 45.0816256,1.97398584 46.1612652,1.97398584 C51.3845986,1.97398584 55.636252,6.64512015 55.636252,12.3950426 C55.636252,18.1398423 51.3845986,22.8160384 46.1612652,22.8160384 C45.6925978,22.8160384 45.3088008,23.2380424 45.3088008,23.7534999 C45.3088008,24.2688598 45.6925978,24.6910102 46.1612652,24.6910102 C48.3617209,24.6910102 50.413961,23.9745218 52.1458935,22.7568464 C58.4534577,25.3791284 62.7481286,31.8748975 63.0835295,39.2567543 L54.6851547,39.2567543 C54.2120403,39.2567543 53.8328345,39.6792097 53.8328345,40.1943012 C53.8328345,40.7096611 54.211641,41.1317993 54.6851547,41.1317993 L63.9628645,41.1317993 C64.4313989,41.1317993 64.8062796,40.709344 64.8062796,40.1943012 C64.8023981,32.0241766 60.4006328,24.6785083 53.7071756,21.4245801 C55.9261292,19.1812345 57.3231931,15.9672393 57.3231931,12.3950426 C57.3231931,5.61942553 52.3216563,0.108857015 46.1612652,0.108857015 L46.1612652,0.108857015 Z M32.4330502,1.97398584 C32.6259911,1.97398584 32.8143519,1.98726837 33.0074259,2.00512478 C37.9596462,2.33330949 41.9081701,6.86390995 41.9081701,12.3965185 C41.9081701,17.9240774 37.9642374,22.4445909 33.0074259,22.7780691 C32.814485,22.786973 32.6261242,22.8091837 32.4330502,22.8091837 C32.2353739,22.8091837 32.0425661,22.7869486 31.8498802,22.7780691 C26.8975379,22.4445421 22.9580633,17.9240774 22.9580633,12.3965185 C22.9580633,6.86390995 26.8930687,2.3385542 31.8498802,2.00512478 C32.0426992,1.99185444 32.2352519,1.97398584 32.4330502,1.97398584 L32.4330502,1.97398584 Z M26.4484219,22.7370628 C27.3120204,23.3484253 28.2598352,23.8297312 29.2568333,24.1581232 C29.371602,24.1937019 29.5006766,24.2114851 29.6154453,24.247076 C30.3229655,24.4542908 31.0556597,24.5765901 31.813805,24.6219386 C32.0203975,24.6308424 32.2168872,24.6726415 32.4238678,24.6726415 C32.6304492,24.6726415 32.8317962,24.6370629 33.0340526,24.6219386 C33.7323904,24.5819202 34.4228545,24.4685369 35.0797386,24.286643 C35.2496016,24.2412946 35.4210393,24.2137172 35.5912904,24.1581232 C36.5973379,23.8299385 37.5359702,23.3434001 38.399713,22.7370628 C44.7071441,25.3593815 49.0154555,31.8650301 49.3462652,39.2469114 L15.5016035,39.2469114 C15.832269,31.8700919 20.1405915,25.3593815 26.4481557,22.7370628 L26.4484219,22.7370628 Z"></path>
                    </g>
                </g>
            </g>
        </g>
    </g>
</svg>