<?xml version="1.0" encoding="UTF-8"?>
<svg width="43px" height="49px" viewBox="0 0 43 49" version="1.1" xmlns="http://www.w3.org/2000/svg" xmlns:xlink="http://www.w3.org/1999/xlink">
    <!-- Generator: Sketch 43.1 (39012) - http://www.bohemiancoding.com/sketch -->
    <title>noun_186736_cc</title>
    <desc>Created with Sketch.</desc>
    <defs></defs>
    <g id="Page-1" stroke="none" stroke-width="1" fill="none" fill-rule="evenodd">
        <g id="Desktop" transform="translate(-277.000000, -631.000000)" fill-rule="nonzero" fill="#000000">
            <g id="noun_186736_cc" transform="translate(277.000000, 631.000000)">
                <g id="Group">
                    <polygon id="Shape" points="0.272222222 12.25 42.4666667 12.25 42.4666667 0 12.5222222 0"></polygon>
                    <path d="M1.63333333,49 L42.4666667,49 L42.4666667,14.9722222 L1.63333333,14.9722222 L1.63333333,49 Z M15.2444444,46.2777778 L7.07777778,46.2777778 L7.07777778,38.1111111 L15.2444444,38.1111111 L15.2444444,46.2777778 Z M7.07777778,32.6666667 L7.07777778,24.5 L15.2444444,24.5 L15.2444444,32.6666667 L7.07777778,32.6666667 Z M26.1333333,24.5 L34.3,24.5 L34.3,32.6666667 L26.1333333,32.6666667 L26.1333333,24.5 Z M26.1333333,38.1111111 L34.3,38.1111111 L34.3,46.2777778 L26.1333333,46.2777778 L26.1333333,38.1111111 Z M12.5222222,19.0555556 C8.98333333,21.3966667 11.9233333,23.3566667 13.8833333,20.4166667 C14.9177778,18.8377778 17.4766667,17.2588889 19.3277778,17.6944444 C16.8777778,18.6744444 16.0066667,20.7433333 16.6055556,21.7777778 C17.3677778,23.1388889 19.4911111,22.4855556 22.05,21.7777778 C21.7233333,22.2133333 19.9266667,24.2277778 19.3277778,25.8611111 C18.8377778,27.2766667 19.1644444,28.5833333 20.6888889,28.5833333 C21.1244444,28.5833333 21.56,28.4744444 21.9411111,28.2566667 C21.4511111,30.7611111 19.2733333,32.6666667 16.6055556,32.6666667 L16.6055556,23.1388889 L6.96888889,23.1388889 C7.24111111,20.2533333 10.8888889,18.5111111 12.5222222,19.0555556 Z" id="Shape"></path>
                </g>
            </g>
        </g>
    </g>
</svg>